<svg width="210" height="297" viewBox="0 0 210 297" fill="none" xmlns="http://www.w3.org/2000/svg">
<g clip-path="url(#clip0)">
<path fill-rule="evenodd" clip-rule="evenodd" d="M-50.0514 -11.3729C56.4694 -11.3772 162.987 -11.3772 269.508 -11.3701C269.508 95.0846 269.517 201.539 269.505 307.997C162.987 308.001 56.4694 308.001 -50.0514 307.997C-50.0556 201.539 -50.0556 95.0846 -50.0514 -11.3729ZM-39.4376 -0.766932C-39.4419 98.6204 -39.4419 198.003 -39.4376 297.391C60.0073 297.394 159.449 297.394 258.896 297.391C258.899 198.003 258.899 98.6204 258.896 -0.766932C159.449 -0.769771 60.0073 -0.774029 -39.4376 -0.766932ZM31.3859 70.0117C83.6152 70.0075 135.846 70.0075 188.072 70.0117C188.075 83.8242 188.075 97.6325 188.072 111.444C168.867 111.451 149.662 111.441 130.46 111.448C130.457 132.095 130.46 152.738 130.46 173.381C130.402 177.331 130.57 181.3 130.376 185.234C116.611 199.047 102.78 212.797 89.0108 226.608L88.9824 226.226C89.0194 212.509 88.9853 198.791 89.0009 185.078C88.9966 160.536 89.0009 135.99 88.9966 111.448C69.7916 111.441 50.5909 111.451 31.3859 111.444C31.3859 97.6325 31.3817 83.8242 31.3859 70.0117Z" fill="black"/>
<path fill-rule="evenodd" clip-rule="evenodd" d="M31.3859 185.176C46.857 185.143 62.3309 185.223 77.802 185.136C81.7063 198.781 85.0696 212.582 88.9824 226.226L89.0108 226.608C69.803 226.605 50.598 226.612 31.3902 226.605C31.3817 212.797 31.3902 198.984 31.3859 185.176Z" fill="#E0A859"/>
<path fill-rule="evenodd" clip-rule="evenodd" d="M77.802 185.136C81.5317 184.999 85.267 185.107 89.0009 185.078C88.9853 198.791 89.0194 212.509 88.9824 226.226C85.0696 212.582 81.7063 198.781 77.802 185.136Z" fill="#BF9150"/>
</g>
<defs>
<clipPath id="clip0">
<rect width="210" height="297" fill="white"/>
</clipPath>
</defs>
</svg>
